<svg width="20" height="20" viewBox="0 0 20 20" fill="none" xmlns="http://www.w3.org/2000/svg">
<path opacity="0.4" d="M14.0841 -9.15527e-05L5.91612 -9.15527e-05C2.37712 -9.15527e-05 0.00012207 2.27591 0.00012207 5.66491L0.00012207 14.3349C0.00012207 17.7239 2.37712 19.9999 5.91612 19.9999L14.0841 19.9999C17.6221 19.9999 20.0001 17.7229 20.0001 14.3339L20.0001 5.66491C20.0001 2.27591 17.6221 -9.15527e-05 14.0841 -9.15527e-05Z" fill="url(#paint0_linear_1423_212)"/>
<path d="M9.14454 5.7206L5.37954 9.4686C5.09654 9.7506 5.09654 10.2496 5.37954 10.5326L9.14454 14.2806C9.43854 14.5726 9.91354 14.5716 10.2055 14.2776C10.4975 13.9836 10.4975 13.5096 10.2035 13.2166L7.72654 10.7496H14.0815C14.4965 10.7496 14.8315 10.4136 14.8315 9.9996C14.8315 9.5856 14.4965 9.2496 14.0815 9.2496L7.72654 9.2496L10.2035 6.7836C10.3505 6.6366 10.4235 6.4446 10.4235 6.2516C10.4235 6.0606 10.3505 5.8686 10.2055 5.7226C9.91354 5.4296 9.43854 5.4286 9.14454 5.7206Z" fill="url(#paint1_linear_1423_212)"/>
<defs>
<linearGradient id="paint0_linear_1423_212" x1="25.1317" y1="-1.44937" x2="-5.72383" y2="14.9336" gradientUnits="userSpaceOnUse">
<stop stop-color="#FFC881"/>
<stop offset="1" stop-color="#DA8517"/>
</linearGradient>
<linearGradient id="paint1_linear_1423_212" x1="17.3112" y1="4.8503" x2="2.88958" y2="13.0758" gradientUnits="userSpaceOnUse">
<stop stop-color="#FFC881"/>
<stop offset="1" stop-color="#DA8517"/>
</linearGradient>
</defs>
</svg>
