<svg width="20" height="20" viewBox="0 0 20 20" fill="none" xmlns="http://www.w3.org/2000/svg">
<path opacity="0.4" d="M5.91588 20.0001H14.0839C17.6229 20.0001 19.9999 17.7241 19.9999 14.3351V5.66509C19.9999 2.27609 17.6229 9.15527e-05 14.0839 9.15527e-05H5.91588C2.37788 9.15527e-05 -0.00012207 2.27709 -0.00012207 5.66609L-0.00012207 14.3351C-0.00012207 17.7241 2.37788 20.0001 5.91588 20.0001Z" fill="url(#paint0_linear_1423_146)"/>
<path d="M10.8555 14.2794L14.6205 10.5314C14.9035 10.2494 14.9035 9.7504 14.6205 9.4674L10.8555 5.7194C10.5615 5.4274 10.0865 5.4284 9.79446 5.7224C9.50246 6.0164 9.50246 6.4904 9.79646 6.7834L12.2735 9.2504H5.91846C5.50346 9.2504 5.16846 9.5864 5.16846 10.0004C5.16846 10.4144 5.50346 10.7504 5.91846 10.7504H12.2735L9.79646 13.2164C9.64946 13.3634 9.57646 13.5554 9.57646 13.7484C9.57646 13.9394 9.64946 14.1314 9.79446 14.2774C10.0865 14.5704 10.5615 14.5714 10.8555 14.2794Z" fill="url(#paint1_linear_1423_146)"/>
<defs>
<linearGradient id="paint0_linear_1423_146" x1="-5.1317" y1="21.4494" x2="25.7238" y2="5.06643" gradientUnits="userSpaceOnUse">
<stop stop-color="#FFC881"/>
<stop offset="1" stop-color="#DA8517"/>
</linearGradient>
<linearGradient id="paint1_linear_1423_146" x1="2.68881" y1="15.1497" x2="17.1104" y2="6.92423" gradientUnits="userSpaceOnUse">
<stop stop-color="#FFC881"/>
<stop offset="1" stop-color="#DA8517"/>
</linearGradient>
</defs>
</svg>
