<svg width="371" height="229" viewBox="0 0 371 229" fill="none" xmlns="http://www.w3.org/2000/svg">
<path opacity="0.0833333" fill-rule="evenodd" clip-rule="evenodd" d="M89.7583 123.514C74.9846 137.96 49.054 136.498 29.3916 131.675C10.7932 127.113 1.91655 107.623 -14.2459 98.0047C-30.9597 88.058 -54.2296 88.7415 -66.9227 74.3565C-80.528 58.9374 -85.7892 37.6345 -85.7972 16.9155C-85.8056 -4.77353 -86.5567 -33.6312 -66.969 -45.3287C-44.3422 -58.8412 -15.2809 -30.3707 9.29795 -39.8741C30.1626 -47.9415 28.3977 -92.9223 50.2505 -90.6518C72.9508 -88.2933 58.4712 -42.8586 78.3373 -32.701C101.443 -20.8869 136.596 -51.429 157.156 -35.9909C174.104 -23.265 167.983 7.51411 157.143 26.4731C146.377 45.3034 114.175 43.0255 101.741 60.9316C89.1006 79.1355 105.748 107.879 89.7583 123.514Z" stroke="url(#paint0_linear_22_315)" stroke-opacity="0.83" stroke-width="2"/>
<path opacity="0.166667" fill-rule="evenodd" clip-rule="evenodd" d="M83.2141 109.539C66.8923 122.041 41.4511 117.388 22.6038 110.177C4.77637 103.356 -1.66219 82.9309 -16.4786 71.3957C-31.8003 59.4669 -54.8697 57.271 -65.6888 41.4372C-77.2856 24.4652 -79.9357 2.6884 -77.4664 -17.8605C-74.8814 -39.3715 -72.1729 -68.0837 -51.4242 -77.2656C-27.4562 -87.8721 -2.15159 -56.0476 23.2655 -62.4371C44.8416 -67.8611 48.4764 -112.688 69.7926 -107.738C91.9356 -102.595 72.1991 -59.3241 90.6098 -46.7969C112.023 -32.2268 150.401 -58.1753 168.866 -40.3256C184.086 -25.6117 174.359 4.15731 161.384 21.6211C148.497 38.9663 116.959 32.7303 102.535 48.953C87.8706 65.4455 100.879 96.0078 83.2141 109.539Z" stroke="url(#paint1_linear_22_315)" stroke-opacity="0.83" stroke-width="2"/>
<path opacity="0.25" fill-rule="evenodd" clip-rule="evenodd" d="M78.6063 95.1058C60.9885 105.503 36.4259 97.7579 18.6816 88.2856C1.89742 79.3258 -2.00741 58.2687 -15.2522 45.0018C-28.9489 31.2823 -51.4645 26.2666 -60.2461 9.22637C-69.659 -9.03868 -69.6608 -30.9707 -64.7549 -51.0548C-59.6192 -72.0792 -53.497 -100.233 -31.9066 -106.791C-6.96634 -114.367 14.1984 -79.6803 40.0631 -82.894C62.0192 -85.622 70.9914 -129.651 91.445 -122.118C112.692 -114.293 88.0075 -73.7877 104.682 -59.0945C124.076 -42.0053 165.088 -63.0307 181.177 -43.0502C194.439 -26.5799 181.26 1.75957 166.351 17.4908C151.543 33.1152 121.15 23.0495 104.959 37.3711C88.4991 51.931 97.6741 83.8535 78.6063 95.1058Z" stroke="url(#paint2_linear_22_315)" stroke-opacity="0.83" stroke-width="2"/>
<path opacity="0.333333" fill-rule="evenodd" clip-rule="evenodd" d="M75.9655 80.4571C57.3199 88.6193 34.0085 77.9277 17.6361 66.3557C2.14957 55.4098 0.836499 34.0341 -10.6364 19.2468C-22.5007 3.95509 -44.1208 -3.77787 -50.7327 -21.7638C-57.8198 -41.0425 -55.1745 -62.8089 -47.9078 -82.1408C-40.3009 -102.378 -30.8595 -129.57 -8.75581 -133.437C16.7774 -137.903 33.483 -100.889 59.4023 -100.913C81.4047 -100.934 95.5752 -143.532 114.856 -133.553C134.885 -123.187 105.63 -86.009 120.316 -69.3866C137.398 -50.0534 180.419 -65.9014 193.889 -44.1032C204.992 -26.1346 188.563 0.377863 171.947 14.1658C155.444 27.8601 126.658 14.1514 108.947 26.3836C90.9417 38.8192 96.1457 71.623 75.9655 80.4571Z" stroke="url(#paint3_linear_22_315)" stroke-opacity="0.83" stroke-width="2"/>
<path opacity="0.416667" fill-rule="evenodd" clip-rule="evenodd" d="M75.2923 65.8346C55.8993 71.6671 34.1894 58.2181 19.4348 44.7397C5.47868 31.9906 6.77687 10.6141 -2.75188 -5.45941C-12.6057 -22.0812 -33.0054 -32.3877 -37.3482 -51.0445C-42.0033 -71.0423 -36.751 -92.3249 -27.2329 -110.629C-17.2692 -129.79 -4.65095 -155.63 17.6338 -156.778C43.3761 -158.104 55.3718 -119.332 80.956 -116.202C102.674 -113.545 121.829 -154.102 139.648 -141.851C158.157 -129.125 124.772 -95.7833 137.25 -77.4972C151.762 -56.229 196.145 -66.7238 206.794 -43.4485C215.573 -24.2622 196.139 0.0535956 178.067 11.7169C160.118 23.3011 133.37 6.19112 114.406 16.177C95.1263 26.329 96.2814 59.5221 75.2923 65.8346Z" stroke="url(#paint4_linear_22_315)" stroke-opacity="0.83" stroke-width="2"/>
<path opacity="0.5" fill-rule="evenodd" clip-rule="evenodd" d="M76.5579 51.4778C56.7058 54.9199 36.9201 38.9445 24.0027 23.7815C11.7844 9.43897 15.6745 -11.6205 8.23153 -28.7269C0.53469 -46.4167 -18.3413 -59.1147 -20.3507 -78.1574C-22.5045 -98.5689 -14.7233 -119.057 -3.09535 -136.072C9.07697 -153.884 24.6845 -178.004 46.8189 -176.447C72.3878 -174.648 79.4953 -134.714 104.364 -128.512C125.475 -123.247 149.33 -161.182 165.422 -146.867C182.137 -131.996 145.117 -102.944 155.201 -83.2844C166.929 -60.4192 212.014 -65.4647 219.684 -41.0749C226.006 -20.97 203.859 0.812365 184.599 10.2016C165.469 19.527 141.158 -0.691609 121.222 6.92475C100.955 14.6678 98.044 47.7524 76.5579 51.4778Z" stroke="url(#paint5_linear_22_315)" stroke-opacity="0.83" stroke-width="2"/>
<path opacity="0.583333" fill-rule="evenodd" clip-rule="evenodd" d="M79.7047 37.6193C59.6853 38.6458 42.1141 20.4121 31.2233 3.81122C20.9218 -11.8914 27.346 -32.3208 22.0977 -50.1913C16.6704 -68.6714 -0.404947 -83.5433 -0.0518773 -102.681C0.326571 -123.195 10.5217 -142.589 24.088 -158.074C38.2895 -174.284 56.656 -196.341 78.315 -192.132C103.334 -187.27 105.451 -146.788 129.239 -137.64C149.432 -129.875 177.636 -164.648 191.764 -148.506C206.439 -131.738 166.331 -107.364 173.873 -86.6425C182.644 -62.5418 227.769 -62.1227 232.348 -36.9975C236.122 -16.2863 211.586 2.66326 191.422 9.66244C171.394 16.6141 149.876 -6.37476 129.262 -1.21613C108.305 4.0283 101.372 36.5082 79.7047 37.6193Z" stroke="url(#paint6_linear_22_315)" stroke-opacity="0.83" stroke-width="2"/>
<path opacity="0.666667" fill-rule="evenodd" clip-rule="evenodd" d="M84.6472 24.4815C64.7519 23.1027 49.6489 2.91181 40.9414 -14.8595C32.705 -31.6691 41.5677 -51.1647 38.5886 -69.5197C35.5078 -88.5009 20.4799 -105.298 23.1883 -124.239C26.0914 -144.542 38.5502 -162.559 53.856 -176.295C69.8783 -190.674 90.7346 -210.354 111.603 -203.585C135.71 -195.767 132.808 -155.357 155.171 -143.435C174.154 -133.314 206.292 -164.43 218.253 -146.726C230.677 -128.336 188.066 -108.961 192.958 -87.5034C198.648 -62.5465 243.157 -56.7275 244.58 -31.2564C245.753 -10.2601 219.188 5.59885 198.413 10.1271C177.779 14.6246 159.365 -10.7557 138.372 -8.10698C117.031 -5.41423 106.18 25.9739 84.6472 24.4815Z" stroke="url(#paint7_linear_22_315)" stroke-opacity="0.83" stroke-width="2"/>
<path opacity="0.75" fill-rule="evenodd" clip-rule="evenodd" d="M91.2743 12.2738C71.7893 8.53444 59.3679 -13.2845 52.9654 -31.942C46.9092 -49.5899 58.0787 -67.8618 57.4078 -86.415C56.714 -105.601 43.9466 -124.046 48.9673 -142.503C54.3489 -162.286 68.8881 -178.663 85.7099 -190.456C103.319 -202.801 126.361 -219.826 146.14 -210.627C168.989 -200.001 161.119 -160.283 181.736 -145.796C199.238 -133.499 234.841 -160.516 244.466 -141.537C254.464 -121.823 209.967 -107.695 212.144 -85.8378C214.676 -60.4159 257.928 -49.3395 256.18 -23.9167C254.74 -2.96022 226.532 9.5954 205.446 11.6077C184.504 13.6063 169.454 -13.7525 148.387 -13.6296C126.969 -13.5046 112.363 16.321 91.2743 12.2738Z" stroke="url(#paint8_linear_22_315)" stroke-opacity="0.83" stroke-width="2"/>
<path opacity="0.833333" fill-rule="evenodd" clip-rule="evenodd" d="M99.4503 1.18903C80.6532 -4.83219 71.0834 -27.9275 67.0709 -47.175C63.2755 -65.3809 76.5856 -82.1576 78.2261 -100.62C79.9225 -119.713 69.5917 -139.506 76.8466 -157.197C84.6229 -176.159 101.029 -190.658 119.122 -200.343C138.062 -210.482 162.953 -224.611 181.364 -213.146C202.631 -199.901 189.92 -161.483 208.502 -144.678C224.276 -130.413 262.825 -152.95 269.983 -133.002C277.419 -112.28 231.678 -103.571 231.116 -81.6552C230.462 -56.1656 271.843 -40.0494 266.959 -15.0674C262.933 5.5256 233.489 14.613 212.396 14.1004C191.445 13.5913 179.965 -15.3055 159.124 -17.6879C137.937 -20.11 119.795 7.70583 99.4503 1.18903Z" stroke="url(#paint9_linear_22_315)" stroke-opacity="0.83" stroke-width="2"/>
<path opacity="0.916667" fill-rule="evenodd" clip-rule="evenodd" d="M109.018 -8.59896C91.1732 -16.7911 84.5795 -40.7942 83.0044 -60.3279C81.5145 -78.8047 96.7674 -93.8367 100.687 -111.923C104.739 -130.626 96.9822 -151.45 106.359 -168.105C116.41 -185.958 134.442 -198.367 153.544 -205.81C173.54 -213.601 199.92 -224.638 216.705 -211.101C236.095 -195.464 218.743 -158.933 235.034 -140.089C248.863 -124.093 289.799 -141.834 294.398 -121.233C299.175 -99.8329 252.846 -96.6371 249.564 -75.0041C245.747 -49.8434 284.676 -28.9763 276.738 -4.82013C270.194 15.0922 239.938 20.5965 219.136 17.5862C198.476 14.5963 190.714 -15.3777 170.395 -20.2095C149.738 -25.1215 128.332 0.267446 109.018 -8.59896Z" stroke="url(#paint10_linear_22_315)" stroke-opacity="0.83" stroke-width="2"/>
<path fill-rule="evenodd" clip-rule="evenodd" d="M119.802 -16.9378C103.157 -27.1597 99.6162 -51.6907 100.487 -71.2045C101.312 -89.6624 118.281 -102.726 124.41 -120.156C130.749 -138.18 125.662 -159.704 137.016 -175.071C149.186 -191.542 168.58 -201.681 188.415 -206.78C209.178 -212.118 236.664 -219.909 251.595 -204.525C268.843 -186.753 247.121 -152.667 260.902 -132.09C272.601 -114.623 315.33 -127.322 317.32 -106.393C319.386 -84.6531 273.128 -86.9858 267.188 -65.9711C260.279 -41.5294 296.217 -16.2661 285.353 6.69279C276.398 25.6182 245.764 27.4759 225.547 22.0303C205.468 16.6217 201.514 -13.9556 182.002 -21.1461C162.165 -28.4561 137.817 -5.87464 119.802 -16.9378Z" stroke="url(#paint11_linear_22_315)" stroke-opacity="0.83" stroke-width="2"/>
<defs>
<linearGradient id="paint0_linear_22_315" x1="252.052" y1="109.149" x2="-58.6575" y2="-141.478" gradientUnits="userSpaceOnUse">
<stop stop-color="#FFC881"/>
<stop offset="1" stop-color="#DA8517"/>
</linearGradient>
<linearGradient id="paint1_linear_22_315" x1="245.257" y1="115.335" x2="-32.9249" y2="-170.419" gradientUnits="userSpaceOnUse">
<stop stop-color="#FFC881"/>
<stop offset="1" stop-color="#DA8517"/>
</linearGradient>
<linearGradient id="paint2_linear_22_315" x1="237.916" y1="120.785" x2="-3.80454" y2="-195.908" gradientUnits="userSpaceOnUse">
<stop stop-color="#FFC881"/>
<stop offset="1" stop-color="#DA8517"/>
</linearGradient>
<linearGradient id="paint3_linear_22_315" x1="230.123" y1="125.436" x2="28.2636" y2="-217.572" gradientUnits="userSpaceOnUse">
<stop stop-color="#FFC881"/>
<stop offset="1" stop-color="#DA8517"/>
</linearGradient>
<linearGradient id="paint4_linear_22_315" x1="221.981" y1="129.239" x2="62.7983" y2="-235.091" gradientUnits="userSpaceOnUse">
<stop stop-color="#FFC881"/>
<stop offset="1" stop-color="#DA8517"/>
</linearGradient>
<linearGradient id="paint5_linear_22_315" x1="213.597" y1="132.158" x2="99.285" y2="-248.208" gradientUnits="userSpaceOnUse">
<stop stop-color="#FFC881"/>
<stop offset="1" stop-color="#DA8517"/>
</linearGradient>
<linearGradient id="paint6_linear_22_315" x1="205.083" y1="134.171" x2="137.182" y2="-256.726" gradientUnits="userSpaceOnUse">
<stop stop-color="#FFC881"/>
<stop offset="1" stop-color="#DA8517"/>
</linearGradient>
<linearGradient id="paint7_linear_22_315" x1="196.551" y1="135.269" x2="175.931" y2="-260.518" gradientUnits="userSpaceOnUse">
<stop stop-color="#FFC881"/>
<stop offset="1" stop-color="#DA8517"/>
</linearGradient>
<linearGradient id="paint8_linear_22_315" x1="188.114" y1="135.456" x2="214.96" y2="-259.523" gradientUnits="userSpaceOnUse">
<stop stop-color="#FFC881"/>
<stop offset="1" stop-color="#DA8517"/>
</linearGradient>
<linearGradient id="paint9_linear_22_315" x1="179.885" y1="134.753" x2="253.698" y2="-253.749" gradientUnits="userSpaceOnUse">
<stop stop-color="#FFC881"/>
<stop offset="1" stop-color="#DA8517"/>
</linearGradient>
<linearGradient id="paint10_linear_22_315" x1="171.97" y1="133.192" x2="291.578" y2="-243.271" gradientUnits="userSpaceOnUse">
<stop stop-color="#FFC881"/>
<stop offset="1" stop-color="#DA8517"/>
</linearGradient>
<linearGradient id="paint11_linear_22_315" x1="164.474" y1="130.818" x2="328.049" y2="-228.232" gradientUnits="userSpaceOnUse">
<stop stop-color="#FFC881"/>
<stop offset="1" stop-color="#DA8517"/>
</linearGradient>
</defs>
</svg>
