<svg width="10" height="10" viewBox="0 0 10 10" fill="none" xmlns="http://www.w3.org/2000/svg">
<path d="M4.14454 0.720604L0.379543 4.4686C0.0965433 4.7506 0.0965433 5.2496 0.379543 5.5326L4.14454 9.2806C4.43854 9.5726 4.91354 9.5716 5.20554 9.2776C5.49754 8.9836 5.49754 8.5096 5.20354 8.2166L2.72654 5.7496L9.08154 5.7496C9.49654 5.7496 9.83154 5.4136 9.83154 4.9996C9.83154 4.5856 9.49654 4.2496 9.08154 4.2496L2.72654 4.2496L5.20354 1.7836C5.35054 1.6366 5.42354 1.4446 5.42354 1.2516C5.42354 1.0606 5.35054 0.868604 5.20554 0.722604C4.91354 0.429604 4.43854 0.428604 4.14454 0.720604Z" fill="url(#paint0_linear_1403_214)"/>
<defs>
<linearGradient id="paint0_linear_1403_214" x1="12.3112" y1="-0.149702" x2="-2.11042" y2="8.07577" gradientUnits="userSpaceOnUse">
<stop stop-color="#FFC881"/>
<stop offset="1" stop-color="#DA8517"/>
</linearGradient>
</defs>
</svg>
